<svg viewBox="0 0 540 68"  preserveAspectRatio='xMinYMin' fill-rule="evenodd" clip-rule="evenodd" stroke-linejoin="round" stroke-miterlimit="1.414" id="logo"
    xmlns="http://www.w3.org/2000/svg">
    <g id="logo-banner">
        <path d="M44.9410801,55.5397123 C47.2102021,55.5397123 49.049689,53.518388 49.049689,51.0249582 C49.049689,48.5315284 47.2102021,46.5102041 44.9410801,46.5102041 C42.6719581,46.5102041 40.8324712,48.5315284 40.8324712,51.0249582 C40.8324712,53.518388 42.6719581,55.5397123 44.9410801,55.5397123 Z M13.5932343,33.3684322 C6.78380108,46.1644334 0.0365431166,58.8694636 0.00164815868,58.9831382 C-0.0332467993,59.096813 0.49017757,58.6231682 1.17062925,57.9411199 C2.60132253,56.5012399 4.90438975,54.7582273 6.17805572,54.170908 C7.55640656,53.5267512 9.70244648,53.090998 14.2038961,52.5415702 C17.6933919,52.105817 19.2636649,52.0110881 23.5382973,51.9921423 C28.9121209,51.9353049 29.8368373,51.840576 32.1399045,50.9690696 C37.182226,49.0744909 40.4972469,44.2433147 40.7589592,38.4459034 C40.8636439,36.1534631 40.6193792,34.6188542 39.7819003,32.2695765 C39.4678457,31.3980701 36.6588015,25.8848457 33.2042007,19.3864403 C29.8891796,13.1532758 27.1499255,8.01896714 27.132478,8.00002135 C27.1150304,7.98107556 20.4026675,20.572431 13.5932343,33.3684322 Z" id="Shape"></path>
    </g>
    <g id="logo-text">
        <path d="M97.8105929,15.5472046 L107.25,15.5478873 L107.25,52.3788843 L97.4592448,52.3788843 L96.3745611,49.7741142 C93.3635922,52.2172375 89.5505154,53.625 85.2798692,53.625 C74.0367402,53.625 66,45.408959 66,33.9627031 C66,22.5560065 74.0367402,14.4375 85.2798692,14.4375 C89.6104355,14.4375 93.4786656,15.8861863 96.5148277,18.395468 L97.8105929,15.5472046 Z M86.6249995,42.28125 C91.3799424,42.28125 94.875,38.7489388 94.875,34.0168226 C94.875,29.3135612 91.3799424,25.78125 86.6249995,25.78125 C81.8413919,25.78125 78.375,29.3135612 78.375,34.0168226 C78.375,38.7489388 81.8700576,42.28125 86.6250005,42.28125 L86.6249995,42.28125 Z M133.879032,53.625 L133.879717,53.6236356 C122.007079,53.6236356 113.4375,45.3483998 113.4375,33.9521327 C113.4375,22.5558655 121.967317,14.4375 133.918795,14.4375 C144.32295,14.4375 152.126066,20.9626115 153.519823,30.7594865 L141.098732,30.7594865 C140.026506,27.7544023 137.203345,25.8051215 133.879033,25.8051215 C129.398171,25.8051215 126.208916,29.1928322 126.208916,33.9916913 C126.208916,38.7905505 129.437248,42.2566969 133.879032,42.2566969 C137.300694,42.2566969 140.07381,40.1716889 141.12684,36.883556 L153.65625,36.883556 C152.214504,46.8850441 144.303754,53.625 133.879032,53.625 Z M188.560593,15.5472046 L198,15.5478873 L198,52.3788843 L188.209245,52.3788843 L187.124561,49.7741142 C184.113592,52.2172375 180.300515,53.625 176.029869,53.625 C164.78674,53.625 156.75,45.408959 156.75,33.9627031 C156.75,22.5560065 164.78674,14.4375 176.029869,14.4375 C180.360435,14.4375 184.228666,15.8861863 187.264828,18.395468 L188.560593,15.5472046 Z M177.374999,42.28125 C182.129942,42.28125 185.625,38.7489388 185.625,34.0168226 C185.625,29.3135612 182.129942,25.78125 177.374999,25.78125 C172.591392,25.78125 169.125,29.3135612 169.125,34.0168226 C169.125,38.7489388 172.620058,42.28125 177.375001,42.28125 L177.374999,42.28125 Z M232.833353,2.0625 L245.4375,2.0625 L245.4375,52.3743909 L236.002896,52.3743909 L234.800609,49.6294834 C231.788719,52.1608214 227.947429,53.625 223.635917,53.625 C212.277926,53.625 204.1875,45.3800111 204.1875,33.8924715 C204.1875,22.404932 212.277926,14.1989599 223.635917,14.1989599 C227.053596,14.1989599 230.180642,15.1196331 232.833353,16.7652078 L232.833353,2.0625 Z M224.8125,42.28125 C229.567443,42.28125 233.0625,38.7389074 233.0625,34.0315841 C233.0625,29.3235926 229.567443,25.78125 224.8125,25.78125 C220.057557,25.78125 216.5625,29.3235926 216.5625,34.0315841 C216.5625,38.7389074 220.057557,42.28125 224.8125,42.28125 Z M290.8125,33.6818721 L290.811816,33.6832334 C290.811816,34.7912987 290.714671,35.8993641 290.549114,37.036714 L263.117942,37.036714 C263.950516,41.2551253 266.641845,43.4365219 270.659684,43.4365219 C273.632186,43.4365219 276.115543,42.1404877 277.338751,39.987695 L290.001133,39.987695 C287.401476,48.3809306 279.928145,53.625 270.659684,53.625 C259.13294,53.625 250.59375,45.2378946 250.59375,34.0026461 C250.59375,22.7278967 259.064528,14.4375 270.659684,14.4375 C282.567482,14.4375 290.8125,22.8947532 290.8125,33.6818721 Z M271.073251,23.71875 C267.488016,23.71875 264.995348,25.9118161 264,29.90625 L278.4375,29.90625 C277.358159,25.8872417 274.785467,23.71875 271.07325,23.71875 L271.073251,23.71875 Z M340.534792,14.437501 C348.454752,14.437501 353.71875,20.6224408 353.71875,29.3494382 L353.71875,52.59375 L340.983272,52.59375 L340.983272,30.9279294 C340.983272,27.057195 339.561829,25.1897708 336.855882,25.1897708 C333.35568,25.1897708 331.561073,27.6062354 331.561073,32.2730788 L331.561073,52.59375 L319.157677,52.59375 L319.157677,30.9279294 C319.157677,27.1738658 317.746504,25.1897708 315.08027,25.1897708 C311.627997,25.1897708 309.735478,27.6645703 309.735478,32.2730777 L309.735478,52.593749 L297,52.59375 L297,15.533522 L305.955231,15.533522 L307.768325,19.5154378 C310.440037,16.3955152 314.317511,14.4375 318.576364,14.4375 C323.083764,14.4375 326.879073,16.4668911 329.18036,19.893589 C331.837008,16.5410106 335.930848,14.4375 340.534792,14.4375 L340.534792,14.437501 Z M360.9375,10.3125 L360.9375,0 L373.3125,0 L373.3125,10.3125 L360.9375,10.3125 Z M360.9375,52.59375 L360.9375,15.46875 L373.3125,15.46875 L373.3125,52.59375 L360.9375,52.59375 Z M399.941532,53.625 L399.942217,53.6236356 C388.069579,53.6236356 379.5,45.3483998 379.5,33.9521327 C379.5,22.5558655 388.029817,14.4375 399.981295,14.4375 C410.38545,14.4375 418.188566,20.9626115 419.582323,30.7594865 L407.161232,30.7594865 C406.089006,27.7544023 403.265845,25.8051215 399.941533,25.8051215 C395.460671,25.8051215 392.271416,29.1928322 392.271416,33.9916913 C392.271416,38.7905505 395.499748,42.2566969 399.941532,42.2566969 C403.363194,42.2566969 406.13631,40.1716889 407.18934,36.883556 L419.71875,36.883556 C418.277004,46.8850441 410.366254,53.625 399.941532,53.625 Z M424.875,52.59375 L424.875,2.0625 L437.25,2.0625 L437.25,52.59375 L424.875,52.59375 Z M471.133461,15.46875 L484.6875,15.46875 L469.335254,50.6573065 C464.397818,61.9285294 459.859229,66 450.401519,66 L446.081346,66 L446.081346,55.1004606 L449.550914,55.1004606 C454.377786,55.1004606 455.833445,53.8367362 457.542792,49.2537742 L442.40625,15.46875 L456.116301,15.46875 L463.889762,35.7558595 L471.133461,15.46875 Z" id="academicly"></path>
    </g>
</svg>



